<mxfile host="app.diagrams.net" modified="2022-01-16T08:16:31.960Z" agent="5.0 (Macintosh; Intel Mac OS X 10_15_5) AppleWebKit/537.36 (KHTML, like Gecko) Chrome/96.0.4664.110 Safari/537.36" etag="ZpOj_eBcYm5sguv957y1" version="15.9.1" type="github">
  <diagram id="zJ55uwt3RmGiaBM_YKrP" name="Page-1">
    <mxGraphModel dx="1298" dy="834" grid="1" gridSize="10" guides="1" tooltips="1" connect="1" arrows="1" fold="1" page="1" pageScale="1" pageWidth="827" pageHeight="1169" math="0" shadow="0">
      <root>
        <mxCell id="0" />
        <mxCell id="1" parent="0" />
        <mxCell id="7TaDbYIq--7AG3rZgMQV-8" value="" style="edgeStyle=orthogonalEdgeStyle;rounded=0;orthogonalLoop=1;jettySize=auto;html=1;" edge="1" parent="1" source="7TaDbYIq--7AG3rZgMQV-1" target="7TaDbYIq--7AG3rZgMQV-3">
          <mxGeometry relative="1" as="geometry" />
        </mxCell>
        <mxCell id="7TaDbYIq--7AG3rZgMQV-17" value="2" style="edgeLabel;html=1;align=center;verticalAlign=middle;resizable=0;points=[];" vertex="1" connectable="0" parent="7TaDbYIq--7AG3rZgMQV-8">
          <mxGeometry x="-0.4" y="-1" relative="1" as="geometry">
            <mxPoint as="offset" />
          </mxGeometry>
        </mxCell>
        <mxCell id="7TaDbYIq--7AG3rZgMQV-10" value="" style="edgeStyle=orthogonalEdgeStyle;rounded=0;orthogonalLoop=1;jettySize=auto;html=1;entryX=0.5;entryY=0;entryDx=0;entryDy=0;" edge="1" parent="1" source="7TaDbYIq--7AG3rZgMQV-1" target="7TaDbYIq--7AG3rZgMQV-2">
          <mxGeometry relative="1" as="geometry">
            <mxPoint x="150" y="210" as="targetPoint" />
          </mxGeometry>
        </mxCell>
        <mxCell id="7TaDbYIq--7AG3rZgMQV-16" value="1" style="edgeLabel;html=1;align=center;verticalAlign=middle;resizable=0;points=[];" vertex="1" connectable="0" parent="7TaDbYIq--7AG3rZgMQV-10">
          <mxGeometry x="0.2381" y="1" relative="1" as="geometry">
            <mxPoint as="offset" />
          </mxGeometry>
        </mxCell>
        <mxCell id="7TaDbYIq--7AG3rZgMQV-12" value="" style="edgeStyle=orthogonalEdgeStyle;rounded=0;orthogonalLoop=1;jettySize=auto;html=1;" edge="1" parent="1" source="7TaDbYIq--7AG3rZgMQV-1" target="7TaDbYIq--7AG3rZgMQV-4">
          <mxGeometry relative="1" as="geometry">
            <mxPoint x="430" y="210" as="targetPoint" />
          </mxGeometry>
        </mxCell>
        <mxCell id="7TaDbYIq--7AG3rZgMQV-21" value="" style="edgeStyle=orthogonalEdgeStyle;rounded=0;orthogonalLoop=1;jettySize=auto;html=1;entryX=0;entryY=0.5;entryDx=0;entryDy=0;" edge="1" parent="1" source="7TaDbYIq--7AG3rZgMQV-1" target="7TaDbYIq--7AG3rZgMQV-19">
          <mxGeometry relative="1" as="geometry">
            <mxPoint x="290" y="100" as="targetPoint" />
          </mxGeometry>
        </mxCell>
        <mxCell id="7TaDbYIq--7AG3rZgMQV-1" value="SALA" style="rounded=0;whiteSpace=wrap;html=1;" vertex="1" parent="1">
          <mxGeometry x="230" y="180" width="120" height="60" as="geometry" />
        </mxCell>
        <mxCell id="7TaDbYIq--7AG3rZgMQV-25" value="" style="edgeStyle=orthogonalEdgeStyle;rounded=0;orthogonalLoop=1;jettySize=auto;html=1;entryX=0;entryY=0.5;entryDx=0;entryDy=0;" edge="1" parent="1" source="7TaDbYIq--7AG3rZgMQV-2" target="7TaDbYIq--7AG3rZgMQV-23">
          <mxGeometry relative="1" as="geometry">
            <mxPoint x="120" y="450" as="targetPoint" />
          </mxGeometry>
        </mxCell>
        <mxCell id="7TaDbYIq--7AG3rZgMQV-2" value="WI" style="rounded=0;whiteSpace=wrap;html=1;" vertex="1" parent="1">
          <mxGeometry x="60" y="310" width="120" height="60" as="geometry" />
        </mxCell>
        <mxCell id="7TaDbYIq--7AG3rZgMQV-27" value="" style="edgeStyle=orthogonalEdgeStyle;rounded=0;orthogonalLoop=1;jettySize=auto;html=1;entryX=0.5;entryY=0;entryDx=0;entryDy=0;" edge="1" parent="1" source="7TaDbYIq--7AG3rZgMQV-3" target="7TaDbYIq--7AG3rZgMQV-23">
          <mxGeometry relative="1" as="geometry">
            <mxPoint x="290" y="450" as="targetPoint" />
            <Array as="points">
              <mxPoint x="320" y="515" />
              <mxPoint x="250" y="515" />
            </Array>
          </mxGeometry>
        </mxCell>
        <mxCell id="7TaDbYIq--7AG3rZgMQV-3" value="WQA" style="rounded=0;whiteSpace=wrap;html=1;" vertex="1" parent="1">
          <mxGeometry x="230" y="310" width="120" height="60" as="geometry" />
        </mxCell>
        <mxCell id="7TaDbYIq--7AG3rZgMQV-13" value="" style="edgeStyle=orthogonalEdgeStyle;rounded=0;orthogonalLoop=1;jettySize=auto;html=1;" edge="1" parent="1" source="7TaDbYIq--7AG3rZgMQV-4" target="7TaDbYIq--7AG3rZgMQV-7">
          <mxGeometry relative="1" as="geometry" />
        </mxCell>
        <mxCell id="7TaDbYIq--7AG3rZgMQV-14" value="" style="edgeStyle=orthogonalEdgeStyle;rounded=0;orthogonalLoop=1;jettySize=auto;html=1;" edge="1" parent="1" source="7TaDbYIq--7AG3rZgMQV-4" target="7TaDbYIq--7AG3rZgMQV-5">
          <mxGeometry relative="1" as="geometry" />
        </mxCell>
        <mxCell id="7TaDbYIq--7AG3rZgMQV-4" value="WE" style="rounded=0;whiteSpace=wrap;html=1;" vertex="1" parent="1">
          <mxGeometry x="400" y="310" width="120" height="60" as="geometry" />
        </mxCell>
        <mxCell id="7TaDbYIq--7AG3rZgMQV-15" value="" style="edgeStyle=orthogonalEdgeStyle;rounded=0;orthogonalLoop=1;jettySize=auto;html=1;" edge="1" parent="1" source="7TaDbYIq--7AG3rZgMQV-5" target="7TaDbYIq--7AG3rZgMQV-6">
          <mxGeometry relative="1" as="geometry" />
        </mxCell>
        <mxCell id="7TaDbYIq--7AG3rZgMQV-5" value="ES" style="rounded=0;whiteSpace=wrap;html=1;" vertex="1" parent="1">
          <mxGeometry x="400" y="410" width="120" height="60" as="geometry" />
        </mxCell>
        <mxCell id="7TaDbYIq--7AG3rZgMQV-6" value="AE" style="rounded=0;whiteSpace=wrap;html=1;" vertex="1" parent="1">
          <mxGeometry x="400" y="510" width="120" height="60" as="geometry" />
        </mxCell>
        <mxCell id="7TaDbYIq--7AG3rZgMQV-35" value="" style="edgeStyle=orthogonalEdgeStyle;rounded=0;orthogonalLoop=1;jettySize=auto;html=1;" edge="1" parent="1" source="7TaDbYIq--7AG3rZgMQV-7" target="7TaDbYIq--7AG3rZgMQV-34">
          <mxGeometry relative="1" as="geometry" />
        </mxCell>
        <mxCell id="7TaDbYIq--7AG3rZgMQV-7" value="mid-search" style="rounded=0;whiteSpace=wrap;html=1;" vertex="1" parent="1">
          <mxGeometry x="630" y="310" width="120" height="60" as="geometry" />
        </mxCell>
        <mxCell id="7TaDbYIq--7AG3rZgMQV-19" value="other search" style="rounded=0;whiteSpace=wrap;html=1;" vertex="1" parent="1">
          <mxGeometry x="570" y="90" width="120" height="60" as="geometry" />
        </mxCell>
        <mxCell id="7TaDbYIq--7AG3rZgMQV-22" value="offline mid TOS" style="rounded=0;whiteSpace=wrap;html=1;" vertex="1" parent="1">
          <mxGeometry x="580" y="720" width="120" height="60" as="geometry" />
        </mxCell>
        <mxCell id="7TaDbYIq--7AG3rZgMQV-23" value="offline wish TOS" style="rounded=0;whiteSpace=wrap;html=1;" vertex="1" parent="1">
          <mxGeometry x="190" y="660" width="120" height="60" as="geometry" />
        </mxCell>
        <mxCell id="7TaDbYIq--7AG3rZgMQV-33" value="" style="edgeStyle=orthogonalEdgeStyle;rounded=0;orthogonalLoop=1;jettySize=auto;html=1;entryX=0;entryY=0.75;entryDx=0;entryDy=0;" edge="1" parent="1" source="7TaDbYIq--7AG3rZgMQV-28" target="7TaDbYIq--7AG3rZgMQV-22">
          <mxGeometry relative="1" as="geometry">
            <mxPoint x="110" y="515" as="targetPoint" />
          </mxGeometry>
        </mxCell>
        <mxCell id="7TaDbYIq--7AG3rZgMQV-28" value="WI-new" style="rounded=0;whiteSpace=wrap;html=1;" vertex="1" parent="1">
          <mxGeometry x="70" y="385" width="80" height="50" as="geometry" />
        </mxCell>
        <mxCell id="7TaDbYIq--7AG3rZgMQV-31" value="" style="edgeStyle=orthogonalEdgeStyle;rounded=0;orthogonalLoop=1;jettySize=auto;html=1;entryX=-0.008;entryY=0.65;entryDx=0;entryDy=0;entryPerimeter=0;" edge="1" parent="1" source="7TaDbYIq--7AG3rZgMQV-29" target="7TaDbYIq--7AG3rZgMQV-22">
          <mxGeometry relative="1" as="geometry">
            <mxPoint x="270" y="515" as="targetPoint" />
            <Array as="points">
              <mxPoint x="270" y="750" />
              <mxPoint x="579" y="750" />
            </Array>
          </mxGeometry>
        </mxCell>
        <mxCell id="7TaDbYIq--7AG3rZgMQV-29" value="WQA new" style="rounded=0;whiteSpace=wrap;html=1;" vertex="1" parent="1">
          <mxGeometry x="230" y="385" width="80" height="50" as="geometry" />
        </mxCell>
        <mxCell id="7TaDbYIq--7AG3rZgMQV-34" value="mid-ES" style="rounded=0;whiteSpace=wrap;html=1;" vertex="1" parent="1">
          <mxGeometry x="630" y="410" width="120" height="60" as="geometry" />
        </mxCell>
      </root>
    </mxGraphModel>
  </diagram>
</mxfile>
